<svg xmlns="http://www.w3.org/2000/svg" width="172" height="172" viewBox="0 0 172 172"><g id="a703cc02-b328-4b48-8b96-3463222e8b6a" data-name="Layer 2"><path id="b685938d-1300-4b32-901b-b6f14a1e7e36" data-name="Border" d="M129.94,182H62.06C39.43,182,22,182,16,176s-6-23.43-6-46.06V62.07C10,39.43,10,22,16,16s23.43-6,46.06-6h67.88C152.57,10,170,10,176,16s6,23.43,6,46.07V130c0,22.61,0,40.06-6,46S152.57,182,129.94,182Z" transform="translate(-10 -10)" style="fill:#fff"/><polygon points="134 6 134 6 24.01 6 24.01 130 38 130 38 39.76 37.97 39.76 37.97 22.02 38 22.02 38 20.02 162 20.02 134 6"/><polygon points="152 38.02 152 162 166 134 166 24.02 41.98 24.02 41.98 38.02 132.25 38.02 133.98 38.02 148 38.02 150 38.02 152 38.02"/><polygon points="133.98 42.03 133.98 132.25 133.98 134 133.98 148 134 148 134 152 10 152 37.97 166 148 166 148 42.03 133.98 42.03"/><polygon points="39.75 134 39.75 134 22.01 134 22.01 134 20.01 134 20.01 10 6 38 6 148 129.97 148 129.97 134 39.75 134"/></g><g id="bf653f85-af1a-4aa0-a308-9186ea59f660" data-name="Layer 3"><path d="M82.34,100.85a1.89,1.89,0,0,1-1.37-.5A1.82,1.82,0,0,1,80.46,99a1.88,1.88,0,1,1,3.76,0,1.82,1.82,0,0,1-.51,1.36A1.89,1.89,0,0,1,82.34,100.85Z" transform="translate(-10 -10)"/><path d="M89.94,100.65V86.05h2.5V94H94.2l2.68-4.32h2.78L96.34,95l3.38,5.68H96.88L94.2,96.09H92.44v4.56Z" transform="translate(-10 -10)"/><path d="M107.54,100.65a3.37,3.37,0,0,1-2.45-.89,3.2,3.2,0,0,1-.91-2.41V91.91h-3V89.65h3v-3.1h2.52v3.1h4.22v2.26H106.7v5.38a1.17,1.17,0,0,0,.27.79.93.93,0,0,0,.75.31h3v2.26Z" transform="translate(-10 -10)"/></g></svg>